<mxfile host="app.diagrams.net" modified="2022-06-09T22:02:16.984Z" agent="5.0 (Macintosh; Intel Mac OS X 10_15_7) AppleWebKit/537.36 (KHTML, like Gecko) Chrome/102.0.5005.61 Safari/537.36" etag="isdAdIext4CY7_oDOrfK" version="19.0.3" type="github">
  <diagram id="R2lEEEUBdFMjLlhIrx00" name="Page-1">
    <mxGraphModel dx="806" dy="538" grid="1" gridSize="10" guides="1" tooltips="1" connect="1" arrows="1" fold="1" page="1" pageScale="1" pageWidth="850" pageHeight="1100" math="0" shadow="0" extFonts="Permanent Marker^https://fonts.googleapis.com/css?family=Permanent+Marker">
      <root>
        <mxCell id="0" />
        <mxCell id="1" parent="0" />
        <mxCell id="bttaewJcuUnb8oC3wjJb-2" value="Users" style="whiteSpace=wrap;html=1;align=center;" parent="1" vertex="1">
          <mxGeometry x="123" y="121" width="70" height="30" as="geometry" />
        </mxCell>
        <mxCell id="bttaewJcuUnb8oC3wjJb-3" value="userID" style="ellipse;whiteSpace=wrap;html=1;align=center;fontStyle=4;" parent="1" vertex="1">
          <mxGeometry x="30" y="148" width="65" height="30" as="geometry" />
        </mxCell>
        <mxCell id="bttaewJcuUnb8oC3wjJb-4" value="firstname" style="ellipse;whiteSpace=wrap;html=1;align=center;" parent="1" vertex="1">
          <mxGeometry x="30" y="112" width="65" height="30" as="geometry" />
        </mxCell>
        <mxCell id="bttaewJcuUnb8oC3wjJb-11" value="lastname" style="ellipse;whiteSpace=wrap;html=1;align=center;" parent="1" vertex="1">
          <mxGeometry x="30" y="76" width="65" height="30" as="geometry" />
        </mxCell>
        <mxCell id="bttaewJcuUnb8oC3wjJb-12" value="email" style="ellipse;whiteSpace=wrap;html=1;align=center;" parent="1" vertex="1">
          <mxGeometry x="36" y="42" width="64" height="30" as="geometry" />
        </mxCell>
        <mxCell id="bttaewJcuUnb8oC3wjJb-15" value="dateofbirth" style="ellipse;whiteSpace=wrap;html=1;align=center;" parent="1" vertex="1">
          <mxGeometry x="107" y="38" width="80" height="30" as="geometry" />
        </mxCell>
        <mxCell id="bttaewJcuUnb8oC3wjJb-16" value="hometown" style="ellipse;whiteSpace=wrap;html=1;align=center;" parent="1" vertex="1">
          <mxGeometry x="135" y="76" width="70" height="30" as="geometry" />
        </mxCell>
        <mxCell id="bttaewJcuUnb8oC3wjJb-17" value="gender" style="ellipse;whiteSpace=wrap;html=1;align=center;" parent="1" vertex="1">
          <mxGeometry x="30" y="185" width="65" height="30" as="geometry" />
        </mxCell>
        <mxCell id="bttaewJcuUnb8oC3wjJb-18" value="password" style="ellipse;whiteSpace=wrap;html=1;align=center;" parent="1" vertex="1">
          <mxGeometry x="31" y="220" width="64" height="30" as="geometry" />
        </mxCell>
        <mxCell id="bttaewJcuUnb8oC3wjJb-19" value="" style="endArrow=none;html=1;rounded=0;exitX=1;exitY=0.5;exitDx=0;exitDy=0;entryX=0;entryY=0.5;entryDx=0;entryDy=0;" parent="1" source="bttaewJcuUnb8oC3wjJb-3" target="bttaewJcuUnb8oC3wjJb-2" edge="1">
          <mxGeometry relative="1" as="geometry">
            <mxPoint x="135" y="208" as="sourcePoint" />
            <mxPoint x="185" y="173" as="targetPoint" />
          </mxGeometry>
        </mxCell>
        <mxCell id="bttaewJcuUnb8oC3wjJb-22" value="" style="endArrow=none;html=1;rounded=0;strokeColor=default;exitX=0;exitY=1;exitDx=0;exitDy=0;entryX=0.37;entryY=0;entryDx=0;entryDy=0;entryPerimeter=0;" parent="1" source="bttaewJcuUnb8oC3wjJb-16" target="bttaewJcuUnb8oC3wjJb-2" edge="1">
          <mxGeometry relative="1" as="geometry">
            <mxPoint x="285" y="308" as="sourcePoint" />
            <mxPoint x="445" y="308" as="targetPoint" />
          </mxGeometry>
        </mxCell>
        <mxCell id="bttaewJcuUnb8oC3wjJb-23" value="" style="endArrow=none;html=1;rounded=0;strokeColor=default;exitX=0.05;exitY=0.733;exitDx=0;exitDy=0;entryX=0.25;entryY=0;entryDx=0;entryDy=0;exitPerimeter=0;" parent="1" source="bttaewJcuUnb8oC3wjJb-15" target="bttaewJcuUnb8oC3wjJb-2" edge="1">
          <mxGeometry relative="1" as="geometry">
            <mxPoint x="285" y="308" as="sourcePoint" />
            <mxPoint x="445" y="308" as="targetPoint" />
          </mxGeometry>
        </mxCell>
        <mxCell id="bttaewJcuUnb8oC3wjJb-24" value="" style="endArrow=none;html=1;rounded=0;strokeColor=default;exitX=1;exitY=1;exitDx=0;exitDy=0;entryX=0.11;entryY=0;entryDx=0;entryDy=0;entryPerimeter=0;" parent="1" source="bttaewJcuUnb8oC3wjJb-12" target="bttaewJcuUnb8oC3wjJb-2" edge="1">
          <mxGeometry relative="1" as="geometry">
            <mxPoint x="165" y="118" as="sourcePoint" />
            <mxPoint x="325" y="118" as="targetPoint" />
          </mxGeometry>
        </mxCell>
        <mxCell id="bttaewJcuUnb8oC3wjJb-25" value="" style="endArrow=none;html=1;rounded=0;strokeColor=default;exitX=1;exitY=1;exitDx=0;exitDy=0;entryX=0;entryY=0;entryDx=0;entryDy=0;" parent="1" source="bttaewJcuUnb8oC3wjJb-11" target="bttaewJcuUnb8oC3wjJb-2" edge="1">
          <mxGeometry relative="1" as="geometry">
            <mxPoint x="285" y="308" as="sourcePoint" />
            <mxPoint x="445" y="308" as="targetPoint" />
          </mxGeometry>
        </mxCell>
        <mxCell id="bttaewJcuUnb8oC3wjJb-26" value="" style="endArrow=none;html=1;rounded=0;strokeColor=default;exitX=1;exitY=1;exitDx=0;exitDy=0;entryX=0;entryY=0.25;entryDx=0;entryDy=0;" parent="1" source="bttaewJcuUnb8oC3wjJb-4" target="bttaewJcuUnb8oC3wjJb-2" edge="1">
          <mxGeometry relative="1" as="geometry">
            <mxPoint x="175" y="268" as="sourcePoint" />
            <mxPoint x="335" y="268" as="targetPoint" />
          </mxGeometry>
        </mxCell>
        <mxCell id="bttaewJcuUnb8oC3wjJb-28" value="" style="endArrow=none;html=1;rounded=0;strokeColor=default;exitX=1;exitY=0;exitDx=0;exitDy=0;entryX=0;entryY=1;entryDx=0;entryDy=0;" parent="1" source="bttaewJcuUnb8oC3wjJb-18" target="bttaewJcuUnb8oC3wjJb-2" edge="1">
          <mxGeometry relative="1" as="geometry">
            <mxPoint x="299" y="198" as="sourcePoint" />
            <mxPoint x="459" y="198" as="targetPoint" />
          </mxGeometry>
        </mxCell>
        <mxCell id="bttaewJcuUnb8oC3wjJb-29" value="" style="endArrow=none;html=1;rounded=0;strokeColor=default;exitX=1;exitY=0;exitDx=0;exitDy=0;entryX=0;entryY=0.75;entryDx=0;entryDy=0;" parent="1" source="bttaewJcuUnb8oC3wjJb-17" target="bttaewJcuUnb8oC3wjJb-2" edge="1">
          <mxGeometry relative="1" as="geometry">
            <mxPoint x="315" y="97" as="sourcePoint" />
            <mxPoint x="475" y="97" as="targetPoint" />
          </mxGeometry>
        </mxCell>
        <mxCell id="bttaewJcuUnb8oC3wjJb-30" value="HasAlbums" style="rhombus;whiteSpace=wrap;html=1;" parent="1" vertex="1">
          <mxGeometry x="205" y="117" width="100" height="38" as="geometry" />
        </mxCell>
        <mxCell id="bttaewJcuUnb8oC3wjJb-31" value="" style="endArrow=none;html=1;rounded=0;strokeColor=default;exitX=0.5;exitY=1;exitDx=0;exitDy=0;entryX=0.25;entryY=0;entryDx=0;entryDy=0;" parent="1" source="YIt-fGJrimNfhjcuC89_-7" target="bttaewJcuUnb8oC3wjJb-37" edge="1">
          <mxGeometry relative="1" as="geometry">
            <mxPoint x="535" y="105" as="sourcePoint" />
            <mxPoint x="695" y="105" as="targetPoint" />
          </mxGeometry>
        </mxCell>
        <mxCell id="bttaewJcuUnb8oC3wjJb-32" value="" style="endArrow=none;html=1;rounded=0;strokeColor=default;exitX=1;exitY=1;exitDx=0;exitDy=0;entryX=0;entryY=0;entryDx=0;entryDy=0;" parent="1" source="YIt-fGJrimNfhjcuC89_-5" target="bttaewJcuUnb8oC3wjJb-37" edge="1">
          <mxGeometry relative="1" as="geometry">
            <mxPoint x="285" y="308" as="sourcePoint" />
            <mxPoint x="445" y="308" as="targetPoint" />
          </mxGeometry>
        </mxCell>
        <mxCell id="bttaewJcuUnb8oC3wjJb-33" value="" style="endArrow=none;html=1;rounded=0;strokeColor=default;entryX=0.388;entryY=0.886;entryDx=0;entryDy=0;exitX=0.9;exitY=-0.025;exitDx=0;exitDy=0;exitPerimeter=0;entryPerimeter=0;" parent="1" source="bttaewJcuUnb8oC3wjJb-2" target="YIt-fGJrimNfhjcuC89_-1" edge="1">
          <mxGeometry relative="1" as="geometry">
            <mxPoint x="225" y="178" as="sourcePoint" />
            <mxPoint x="445" y="308" as="targetPoint" />
          </mxGeometry>
        </mxCell>
        <mxCell id="bttaewJcuUnb8oC3wjJb-34" value="" style="endArrow=none;html=1;rounded=0;strokeColor=default;exitX=0.65;exitY=0.025;exitDx=0;exitDy=0;exitPerimeter=0;entryX=0.113;entryY=0.659;entryDx=0;entryDy=0;entryPerimeter=0;" parent="1" source="bttaewJcuUnb8oC3wjJb-2" target="YIt-fGJrimNfhjcuC89_-1" edge="1">
          <mxGeometry relative="1" as="geometry">
            <mxPoint x="290" y="148" as="sourcePoint" />
            <mxPoint x="245" y="108" as="targetPoint" />
          </mxGeometry>
        </mxCell>
        <mxCell id="bttaewJcuUnb8oC3wjJb-36" value="" style="endArrow=none;html=1;rounded=0;strokeColor=default;exitX=1;exitY=0.5;exitDx=0;exitDy=0;entryX=0;entryY=0.5;entryDx=0;entryDy=0;" parent="1" source="bttaewJcuUnb8oC3wjJb-2" target="bttaewJcuUnb8oC3wjJb-30" edge="1">
          <mxGeometry relative="1" as="geometry">
            <mxPoint x="299" y="258" as="sourcePoint" />
            <mxPoint x="459" y="258" as="targetPoint" />
          </mxGeometry>
        </mxCell>
        <mxCell id="bttaewJcuUnb8oC3wjJb-37" value="Albums" style="whiteSpace=wrap;html=1;align=center;" parent="1" vertex="1">
          <mxGeometry x="351.5" y="122" width="70" height="28" as="geometry" />
        </mxCell>
        <mxCell id="YIt-fGJrimNfhjcuC89_-1" value="Friends" style="rhombus;whiteSpace=wrap;html=1;" parent="1" vertex="1">
          <mxGeometry x="215" y="64" width="80" height="42" as="geometry" />
        </mxCell>
        <mxCell id="YIt-fGJrimNfhjcuC89_-4" value="" style="endArrow=classic;html=1;rounded=0;entryX=1;entryY=0.5;entryDx=0;entryDy=0;exitX=0;exitY=0.5;exitDx=0;exitDy=0;strokeWidth=2;" parent="1" source="bttaewJcuUnb8oC3wjJb-37" target="bttaewJcuUnb8oC3wjJb-30" edge="1">
          <mxGeometry width="50" height="50" relative="1" as="geometry">
            <mxPoint x="335" y="228" as="sourcePoint" />
            <mxPoint x="385" y="178" as="targetPoint" />
          </mxGeometry>
        </mxCell>
        <mxCell id="YIt-fGJrimNfhjcuC89_-5" value="albumID" style="ellipse;whiteSpace=wrap;html=1;align=center;fontStyle=4;" parent="1" vertex="1">
          <mxGeometry x="276.88" y="98" width="65" height="26" as="geometry" />
        </mxCell>
        <mxCell id="YIt-fGJrimNfhjcuC89_-7" value="name" style="ellipse;whiteSpace=wrap;html=1;align=center;" parent="1" vertex="1">
          <mxGeometry x="315" y="68" width="50" height="26" as="geometry" />
        </mxCell>
        <mxCell id="YIt-fGJrimNfhjcuC89_-8" value="dateofcreation" style="ellipse;whiteSpace=wrap;html=1;align=center;" parent="1" vertex="1">
          <mxGeometry x="291.5" y="30" width="92.5" height="33" as="geometry" />
        </mxCell>
        <mxCell id="YIt-fGJrimNfhjcuC89_-9" value="" style="endArrow=none;html=1;rounded=0;strokeColor=default;exitX=1;exitY=1;exitDx=0;exitDy=0;entryX=0.5;entryY=0;entryDx=0;entryDy=0;" parent="1" source="YIt-fGJrimNfhjcuC89_-8" target="bttaewJcuUnb8oC3wjJb-37" edge="1">
          <mxGeometry relative="1" as="geometry">
            <mxPoint x="484.99873734152925" y="85.80660171779819" as="sourcePoint" />
            <mxPoint x="517.8559637174781" y="132.2" as="targetPoint" />
          </mxGeometry>
        </mxCell>
        <mxCell id="YIt-fGJrimNfhjcuC89_-10" value="HasPhotos" style="rhombus;whiteSpace=wrap;html=1;" parent="1" vertex="1">
          <mxGeometry x="341.88" y="162" width="90" height="40" as="geometry" />
        </mxCell>
        <mxCell id="YIt-fGJrimNfhjcuC89_-11" value="" style="endArrow=none;html=1;rounded=0;strokeWidth=1;exitX=1;exitY=0.25;exitDx=0;exitDy=0;entryX=0;entryY=1;entryDx=0;entryDy=0;" parent="1" source="YIt-fGJrimNfhjcuC89_-16" target="YIt-fGJrimNfhjcuC89_-17" edge="1">
          <mxGeometry relative="1" as="geometry">
            <mxPoint x="115" y="338" as="sourcePoint" />
            <mxPoint x="275" y="338" as="targetPoint" />
          </mxGeometry>
        </mxCell>
        <mxCell id="YIt-fGJrimNfhjcuC89_-12" value="" style="endArrow=none;html=1;rounded=0;strokeWidth=1;entryX=0;entryY=0;entryDx=0;entryDy=0;exitX=1;exitY=1;exitDx=0;exitDy=0;" parent="1" source="YIt-fGJrimNfhjcuC89_-20" target="YIt-fGJrimNfhjcuC89_-16" edge="1">
          <mxGeometry relative="1" as="geometry">
            <mxPoint x="335" y="218" as="sourcePoint" />
            <mxPoint x="395" y="288" as="targetPoint" />
          </mxGeometry>
        </mxCell>
        <mxCell id="YIt-fGJrimNfhjcuC89_-13" value="" style="endArrow=none;html=1;rounded=0;strokeWidth=1;exitX=1;exitY=0.75;exitDx=0;exitDy=0;entryX=0;entryY=0;entryDx=0;entryDy=0;" parent="1" source="bttaewJcuUnb8oC3wjJb-2" target="YIt-fGJrimNfhjcuC89_-20" edge="1">
          <mxGeometry relative="1" as="geometry">
            <mxPoint x="115" y="239.5" as="sourcePoint" />
            <mxPoint x="275" y="239.5" as="targetPoint" />
          </mxGeometry>
        </mxCell>
        <mxCell id="YIt-fGJrimNfhjcuC89_-14" value="" style="endArrow=none;html=1;rounded=0;strokeWidth=1;exitX=0.5;exitY=1;exitDx=0;exitDy=0;entryX=0.5;entryY=0;entryDx=0;entryDy=0;" parent="1" source="bttaewJcuUnb8oC3wjJb-37" target="YIt-fGJrimNfhjcuC89_-10" edge="1">
          <mxGeometry relative="1" as="geometry">
            <mxPoint x="485" y="185" as="sourcePoint" />
            <mxPoint x="645" y="185" as="targetPoint" />
          </mxGeometry>
        </mxCell>
        <mxCell id="YIt-fGJrimNfhjcuC89_-15" value="" style="endArrow=classic;html=1;rounded=0;entryX=0.5;entryY=1;entryDx=0;entryDy=0;strokeWidth=2;exitX=0.5;exitY=0;exitDx=0;exitDy=0;" parent="1" source="YIt-fGJrimNfhjcuC89_-16" target="YIt-fGJrimNfhjcuC89_-10" edge="1">
          <mxGeometry width="50" height="50" relative="1" as="geometry">
            <mxPoint x="465" y="308" as="sourcePoint" />
            <mxPoint x="415" y="313" as="targetPoint" />
          </mxGeometry>
        </mxCell>
        <mxCell id="YIt-fGJrimNfhjcuC89_-16" value="Photos" style="whiteSpace=wrap;html=1;align=center;" parent="1" vertex="1">
          <mxGeometry x="338.88" y="222" width="60" height="30" as="geometry" />
        </mxCell>
        <mxCell id="YIt-fGJrimNfhjcuC89_-17" value="photoID" style="ellipse;whiteSpace=wrap;html=1;align=center;fontStyle=4;" parent="1" vertex="1">
          <mxGeometry x="406" y="192" width="65" height="30" as="geometry" />
        </mxCell>
        <mxCell id="YIt-fGJrimNfhjcuC89_-18" value="caption" style="ellipse;whiteSpace=wrap;html=1;align=center;" parent="1" vertex="1">
          <mxGeometry x="416.5" y="230.75" width="60" height="30" as="geometry" />
        </mxCell>
        <mxCell id="YIt-fGJrimNfhjcuC89_-19" value="data" style="ellipse;whiteSpace=wrap;html=1;align=center;" parent="1" vertex="1">
          <mxGeometry x="420" y="267.5" width="45" height="30.5" as="geometry" />
        </mxCell>
        <mxCell id="YIt-fGJrimNfhjcuC89_-20" value="LikesPhoto" style="rhombus;whiteSpace=wrap;html=1;" parent="1" vertex="1">
          <mxGeometry x="245" y="161" width="96.88" height="33" as="geometry" />
        </mxCell>
        <mxCell id="YIt-fGJrimNfhjcuC89_-24" value="HasTag" style="rhombus;whiteSpace=wrap;html=1;" parent="1" vertex="1">
          <mxGeometry x="351.5" y="263.5" width="65" height="34" as="geometry" />
        </mxCell>
        <mxCell id="YIt-fGJrimNfhjcuC89_-26" value="" style="endArrow=none;html=1;rounded=0;strokeWidth=1;exitX=1;exitY=0.5;exitDx=0;exitDy=0;entryX=0;entryY=0.5;entryDx=0;entryDy=0;" parent="1" source="YIt-fGJrimNfhjcuC89_-16" target="YIt-fGJrimNfhjcuC89_-18" edge="1">
          <mxGeometry relative="1" as="geometry">
            <mxPoint x="425" y="256.75" as="sourcePoint" />
            <mxPoint x="445" y="240" as="targetPoint" />
          </mxGeometry>
        </mxCell>
        <mxCell id="YIt-fGJrimNfhjcuC89_-27" value="" style="endArrow=none;html=1;rounded=0;strokeWidth=1;exitX=1;exitY=0.75;exitDx=0;exitDy=0;entryX=0;entryY=0;entryDx=0;entryDy=0;" parent="1" source="YIt-fGJrimNfhjcuC89_-16" target="YIt-fGJrimNfhjcuC89_-19" edge="1">
          <mxGeometry relative="1" as="geometry">
            <mxPoint x="425" y="265.5" as="sourcePoint" />
            <mxPoint x="447.5" y="278" as="targetPoint" />
          </mxGeometry>
        </mxCell>
        <mxCell id="YIt-fGJrimNfhjcuC89_-28" value="" style="endArrow=none;html=1;rounded=0;strokeWidth=1;exitX=0.5;exitY=1;exitDx=0;exitDy=0;entryX=0.5;entryY=0;entryDx=0;entryDy=0;" parent="1" source="YIt-fGJrimNfhjcuC89_-16" target="YIt-fGJrimNfhjcuC89_-24" edge="1">
          <mxGeometry relative="1" as="geometry">
            <mxPoint x="425" y="274.25" as="sourcePoint" />
            <mxPoint x="438.78679656440363" y="287.3933982822018" as="targetPoint" />
          </mxGeometry>
        </mxCell>
        <mxCell id="YIt-fGJrimNfhjcuC89_-30" value="" style="endArrow=none;html=1;rounded=0;strokeWidth=1;exitX=0;exitY=0.5;exitDx=0;exitDy=0;entryX=1;entryY=0.5;entryDx=0;entryDy=0;" parent="1" source="YIt-fGJrimNfhjcuC89_-24" target="YIt-fGJrimNfhjcuC89_-31" edge="1">
          <mxGeometry relative="1" as="geometry">
            <mxPoint x="395" y="338" as="sourcePoint" />
            <mxPoint x="325" y="308" as="targetPoint" />
          </mxGeometry>
        </mxCell>
        <mxCell id="YIt-fGJrimNfhjcuC89_-31" value="Tags" style="whiteSpace=wrap;html=1;align=center;" parent="1" vertex="1">
          <mxGeometry x="295" y="268" width="48.75" height="25" as="geometry" />
        </mxCell>
        <mxCell id="YIt-fGJrimNfhjcuC89_-33" value="tagname" style="ellipse;whiteSpace=wrap;html=1;align=center;fontStyle=4;" parent="1" vertex="1">
          <mxGeometry x="264.75" y="235" width="66.25" height="26" as="geometry" />
        </mxCell>
        <mxCell id="YIt-fGJrimNfhjcuC89_-34" value="" style="endArrow=none;html=1;rounded=0;strokeWidth=1;exitX=0.5;exitY=0;exitDx=0;exitDy=0;" parent="1" source="YIt-fGJrimNfhjcuC89_-31" target="YIt-fGJrimNfhjcuC89_-33" edge="1">
          <mxGeometry relative="1" as="geometry">
            <mxPoint x="309" y="278" as="sourcePoint" />
            <mxPoint x="362.5" y="263" as="targetPoint" />
          </mxGeometry>
        </mxCell>
        <mxCell id="YIt-fGJrimNfhjcuC89_-35" value="Comments" style="whiteSpace=wrap;html=1;align=center;" parent="1" vertex="1">
          <mxGeometry x="114" y="218" width="80" height="30" as="geometry" />
        </mxCell>
        <mxCell id="YIt-fGJrimNfhjcuC89_-37" value="commentID" style="ellipse;whiteSpace=wrap;html=1;align=center;fontStyle=4;" parent="1" vertex="1">
          <mxGeometry x="30" y="255" width="83" height="30" as="geometry" />
        </mxCell>
        <mxCell id="YIt-fGJrimNfhjcuC89_-39" value="text" style="ellipse;whiteSpace=wrap;html=1;align=center;" parent="1" vertex="1">
          <mxGeometry x="200" y="246" width="44" height="22" as="geometry" />
        </mxCell>
        <mxCell id="YIt-fGJrimNfhjcuC89_-40" value="commentdate" style="ellipse;whiteSpace=wrap;html=1;align=center;" parent="1" vertex="1">
          <mxGeometry x="114" y="261" width="92" height="30" as="geometry" />
        </mxCell>
        <mxCell id="YIt-fGJrimNfhjcuC89_-42" value="Writes" style="rhombus;whiteSpace=wrap;html=1;" parent="1" vertex="1">
          <mxGeometry x="122.28" y="161" width="63.44" height="33" as="geometry" />
        </mxCell>
        <mxCell id="YIt-fGJrimNfhjcuC89_-43" value="HasComment" style="rhombus;whiteSpace=wrap;html=1;" parent="1" vertex="1">
          <mxGeometry x="205" y="194" width="110.88" height="36.75" as="geometry" />
        </mxCell>
        <mxCell id="YIt-fGJrimNfhjcuC89_-44" value="" style="endArrow=none;html=1;rounded=0;strokeWidth=1;exitX=0.5;exitY=1;exitDx=0;exitDy=0;entryX=0.5;entryY=0;entryDx=0;entryDy=0;" parent="1" source="bttaewJcuUnb8oC3wjJb-2" target="YIt-fGJrimNfhjcuC89_-42" edge="1">
          <mxGeometry relative="1" as="geometry">
            <mxPoint x="203" y="163.5" as="sourcePoint" />
            <mxPoint x="279.22" y="179.25" as="targetPoint" />
          </mxGeometry>
        </mxCell>
        <mxCell id="YIt-fGJrimNfhjcuC89_-45" value="" style="endArrow=none;html=1;rounded=0;strokeWidth=1;exitX=1;exitY=0.5;exitDx=0;exitDy=0;entryX=0;entryY=0.5;entryDx=0;entryDy=0;" parent="1" source="YIt-fGJrimNfhjcuC89_-43" target="YIt-fGJrimNfhjcuC89_-16" edge="1">
          <mxGeometry relative="1" as="geometry">
            <mxPoint x="168" y="171" as="sourcePoint" />
            <mxPoint x="177.27999999999997" y="188" as="targetPoint" />
          </mxGeometry>
        </mxCell>
        <mxCell id="YIt-fGJrimNfhjcuC89_-46" value="" style="endArrow=classic;html=1;rounded=0;entryX=0.5;entryY=1;entryDx=0;entryDy=0;strokeWidth=2;exitX=0.5;exitY=0;exitDx=0;exitDy=0;" parent="1" source="YIt-fGJrimNfhjcuC89_-35" target="YIt-fGJrimNfhjcuC89_-42" edge="1">
          <mxGeometry width="50" height="50" relative="1" as="geometry">
            <mxPoint x="175.0000000000001" y="245" as="sourcePoint" />
            <mxPoint x="175.0000000000001" y="215" as="targetPoint" />
          </mxGeometry>
        </mxCell>
        <mxCell id="YIt-fGJrimNfhjcuC89_-47" value="" style="endArrow=classic;html=1;rounded=0;strokeWidth=2;exitX=1;exitY=0.5;exitDx=0;exitDy=0;entryX=0;entryY=1;entryDx=0;entryDy=0;" parent="1" source="YIt-fGJrimNfhjcuC89_-35" target="YIt-fGJrimNfhjcuC89_-43" edge="1">
          <mxGeometry width="50" height="50" relative="1" as="geometry">
            <mxPoint x="185.0000000000001" y="255" as="sourcePoint" />
            <mxPoint x="185.0000000000001" y="225" as="targetPoint" />
          </mxGeometry>
        </mxCell>
        <mxCell id="YIt-fGJrimNfhjcuC89_-50" value="" style="endArrow=none;html=1;rounded=0;strokeWidth=1;exitX=0;exitY=0.5;exitDx=0;exitDy=0;entryX=1;entryY=0;entryDx=0;entryDy=0;" parent="1" source="YIt-fGJrimNfhjcuC89_-35" target="YIt-fGJrimNfhjcuC89_-37" edge="1">
          <mxGeometry relative="1" as="geometry">
            <mxPoint x="125" y="298" as="sourcePoint" />
            <mxPoint x="115" y="278" as="targetPoint" />
          </mxGeometry>
        </mxCell>
        <mxCell id="YIt-fGJrimNfhjcuC89_-51" value="" style="endArrow=none;html=1;rounded=0;strokeWidth=1;exitX=1;exitY=0.75;exitDx=0;exitDy=0;entryX=0.068;entryY=0.233;entryDx=0;entryDy=0;entryPerimeter=0;" parent="1" source="YIt-fGJrimNfhjcuC89_-35" target="YIt-fGJrimNfhjcuC89_-39" edge="1">
          <mxGeometry relative="1" as="geometry">
            <mxPoint x="125" y="298" as="sourcePoint" />
            <mxPoint x="285" y="298" as="targetPoint" />
          </mxGeometry>
        </mxCell>
        <mxCell id="YIt-fGJrimNfhjcuC89_-52" value="" style="endArrow=none;html=1;rounded=0;strokeWidth=1;exitX=0.5;exitY=1;exitDx=0;exitDy=0;entryX=0.435;entryY=0;entryDx=0;entryDy=0;entryPerimeter=0;" parent="1" source="YIt-fGJrimNfhjcuC89_-35" target="YIt-fGJrimNfhjcuC89_-40" edge="1">
          <mxGeometry relative="1" as="geometry">
            <mxPoint x="125" y="298" as="sourcePoint" />
            <mxPoint x="285" y="298" as="targetPoint" />
          </mxGeometry>
        </mxCell>
      </root>
    </mxGraphModel>
  </diagram>
</mxfile>
